PathFileType	4	(X/Y/Z)	C:/Users/beibeiliu/ov580/test_trc/capture2\sequence.24_training_dense_right.trc
DataRate	CameraRate	NumFrames	NumMarkers	Units	OrigDataRate	OrigDataStartFrame	OrigNumFrames
120	120	20	19	mm	120	51	400
Frame#	Time	ThumbCMC			ThumbMCP			ThumbIP			ThumbTip			IndexMCP			IndexPIP			IndexTip			MiddleMCP			MiddlePIP			MiddleTip			RingMCP			RingPIP			RingTip			PinkyMCP			PinkyPIP			PinkyTip			BackHand1			BackHand2			BackHand3	
		X0	Y0	Z0	X1	Y1	Z1	X2	Y2	Z2	X3	Y3	Z3	X4	Y4	Z4	X5	Y5	Z5	X6	Y6	Z6	X7	Y7	Z7	X8	Y8	Z8	X9	Y9	Z9	X10	Y10	Z10	X11	Y11	Z11	X12	Y12	Z12	X13	Y13	Z13	X14	Y14	Z14	X15	Y15	Z15	X16	Y16	Z16	X17	Y17	Z17	X18	Y18	Z18	
50	0.416667	111.989	29.9106	8.76433	77.4779	22.5304	-7.11345	62.1128	2.74687	-17.6401	58.8599	-27.6559	-15.4149	127.279	-20.2936	-41.6642	120.248	-32.9854	-63.0592	112.244	-48.0327	-79.2524	124.848	-38.7628	-36.3319	120.107	-49.4532	-56.4288	112.493	-68.1322	-78.2286	99.6418	-50.0793	-20.0995	73.4925	-42.6262	-33.0729	65.7974	-13.6344	-11.2965	83.9051	-45.242	-1.89977	62.8531	-26.1864	-6.64446	71.5851	-5.05726	15.9815	127.188	-30.0474	21.0412	134.595	-14.9891	46.7251	141.38	0.992331	20.7666	
51	0.425	112.698	34.6264	11.7904	79.7873	21.4119	-7.12828	63.7042	3.77574	-16.7804	59.8056	-24.4424	-16.3096	126.656	-17.64	-38.3108	119.129	-29.7972	-59.5258	113.31	-43.65	-81.5762	123.886	-34.6946	-32.3751	119.824	-47.0764	-56.2054	113.831	-61.6892	-83.8998	99.7541	-47.4741	-19.762	73.1046	-35.6073	-36.1907	65.6754	-10.7152	-13.6005	82.8284	-42.6337	-4.73133	60.4557	-26.6974	-4.66507	74.4004	0.322816	14.1321	126.673	-28.9268	20.885	132.447	-15.7268	49.6685	143.449	3.15344	18.5817	
52	0.433333	114.162	36.2214	10.5307	78.8874	27.3879	-6.92173	64.3227	6.27832	-18.3324	58.0865	-17.8841	-20.1968	125.299	-15.2091	-42.9939	120.441	-24.4894	-65.986	111.304	-42.8991	-83.5991	124.294	-33.7849	-36.0681	120.185	-41.8161	-59.4929	111.141	-59.0273	-83.4959	100.072	-41.1168	-26.382	73.9672	-32.6844	-37.897	66.2308	-5.61647	-16.5424	84.1327	-38.2079	-6.38002	61.9631	-19.389	-9.53946	72.9984	3.58832	10.2462	125.931	-27.3827	21.7124	133.613	-8.87163	48.3128	141.253	4.29653	18.6641	
53	0.441667	114.587	40.2739	11.9511	79.3864	34.1398	-7.31702	63.9517	15.6358	-19.5581	58.9618	-15.3321	-23.2128	127.227	-5.97289	-42.0701	120.656	-17.1921	-62.7076	113.205	-31.8186	-82.0898	126.23	-23.5149	-38.2246	121.126	-38.5709	-64.7133	113.24	-50.7309	-86.2396	99.4644	-36.8531	-29.6355	73.8129	-27.3795	-40.8922	69.4762	2.79682	-21.5014	83.5461	-34.6049	-8.43144	60.3038	-16.47	-10.0789	72.1011	8.68959	6.4346	127.218	-22.1456	20.9645	133.907	-7.95419	45.5266	144.57	9.86724	15.8042	
54	0.45	114.352	42.4895	14.1532	81.9274	37.8292	-3.64256	65.0338	19.1816	-22.0375	59.8199	-3.86554	-24.9842	127.854	-0.606548	-46.747	122.748	-8.79197	-70.3689	117.553	-20.8447	-86.3165	126.822	-17.4443	-42.807	122.112	-28.5325	-69.1491	116.761	-36.2223	-91.2107	101.226	-26.4152	-34.645	73.9154	-19.8947	-43.3336	67.7906	6.49323	-23.667	82.9361	-27.0904	-15.5918	62.9999	-6.65496	-13.5658	76.2194	14.3135	10.1564	127.234	-15.9128	13.9533	133.206	-5.82547	44.4181	144.619	13.5943	12.681	
55	0.458333	114.828	46.5772	14.3639	83.1614	41.5029	-5.84354	65.9042	28.6732	-21.1502	62.4708	-0.0500778	-25.6741	129.697	11.1895	-47.827	123.185	1.36454	-69.5703	119.725	-9.24568	-87.6721	126.462	-8.66266	-44.632	122.302	-16.422	-69.5241	117.2	-27.8826	-96.5406	102.192	-20.6685	-33.7041	76.7417	-5.22256	-47.6375	67.6274	13.942	-21.4383	86.3438	-20.4684	-17.0268	62.3639	-0.690073	-14.8275	75.6237	20.3004	4.52957	128.48	-12.9246	12.0165	133.13	-1.55299	42.8882	145.115	21.3848	12.4711	
56	0.466667	116.091	51.7175	14.865	82.5804	48.6969	-5.04479	68.0545	34.268	-23.2536	63.3345	8.72093	-28.7865	130.865	17.0336	-47.4394	127.229	13.5087	-68.9078	122.88	1.26213	-92.0847	126.354	0.00522667	-46.1147	120.731	-7.00043	-68.5467	118.799	-14.3709	-95.7756	105.132	-9.4107	-37.1031	75.7951	-0.606924	-48.4389	69.1706	19.4955	-23.0709	88.2692	-11.9741	-21.2169	63.435	4.92257	-18.2517	75.8542	21.6879	7.15105	127.616	-7.7812	13.2457	134.176	0.991353	40.775	144.065	22.857	14.0187	
57	0.475	116.054	56.9218	15.0543	82.7603	54.3754	-8.48423	65.1522	42.5332	-29.2404	64.9897	17.9623	-29.9501	136.001	26.7599	-47.5372	130.247	18.2336	-74.0785	122.472	10.8643	-93.5005	117.152	8.01642	-51.0729	114.465	11.0001	-55.2407	123.798	-1.21065	-81.1594	105.212	-5.25802	-40.7691	79.5945	7.71933	-51.7748	74.7522	29.7765	-26.6318	86.1116	-8.32055	-27.6835	68.0756	12.8142	-24.4365	78.8479	29.0738	4.70232	130.22	-0.825514	8.04258	133.265	2.50969	34.5815	144.374	26.3265	12.2484	
58	0.483333	116.757	60.8305	16.7655	84.1339	62.6303	-2.5433	68.1211	52.7617	-24.4939	66.593	23.2665	-31.4582	134.646	35.4621	-45.7637	132.58	34.162	-72.9167	128.396	26.0629	-93.6792	125.874	17.8484	-48.2088	121.656	13.4432	-73.2525	129.002	10.7889	-95.5034	109.572	6.86715	-42.3466	79.9182	15.8214	-51.5545	73.0761	35.0815	-27.6601	89.1293	-2.2661	-26.7426	67.9167	18.4745	-23.6683	77.1759	34.3003	4.10111	128.776	2.28758	10.7884	134.019	6.73684	41.0753	145.783	32.3331	17.4647	
59	0.491667	116.593	64.4656	19.936	84.2384	69.7391	-2.78375	72.4921	52.2982	-23.9803	67.9831	31.5009	-33.5019	137.981	48.1266	-45.8597	133.416	44.3944	-69.7498	130.751	35.6806	-93.2787	131.662	26.1457	-51.5919	129.968	24.4691	-75.7592	131.275	22.131	-98.5722	110.73	11.7735	-44.9941	82.6031	23.5952	-55.4606	72.4426	39.2714	-28.1785	92.1901	3.28974	-28.2581	68.4888	22.522	-25.5795	78.247	37.8542	-0.499722	130.575	8.58979	4.12588	135.113	10.0996	38.8286	146.734	36.1784	18.7282	
60	0.5	115.98	71.6537	24.033	87.1136	69.857	-0.340391	72.7952	60.7532	-24.3183	69.3426	36.83	-38.6451	140.314	54.2027	-46.603	137.2	57.3628	-72.4717	136.717	52.8766	-95.5569	137.675	37.3698	-47.1367	136.447	40.0273	-73.7196	135.422	35.0455	-105.95	113.123	20.301	-49.4037	87.4843	32.0958	-56.7619	75.4821	46.017	-27.8879	93.9847	9.88205	-30.7532	74.4331	33.4632	-27.3769	78.0837	41.061	1.42663	133.39	11.8191	4.13072	136.141	12.5986	35.8403	147.892	41.4245	15.9569	
61	0.508333	116.006	73.8726	22.3264	84.5667	77.8115	0.866309	72.734	66.844	-26.0924	74.8608	42.9266	-37.1076	143.386	64.9692	-39.9006	140.006	64.2595	-68.9932	139.906	66.1025	-90.0484	139.172	42.6149	-46.0445	141.744	50.2065	-74.6535	141.23	51.8383	-101.875	119.314	31.5602	-47.6638	94.8795	41.0023	-60.1825	77.7764	52.1329	-31.5842	98.4358	21.1205	-35.1251	75.542	35.0291	-29.7545	85.238	48.5439	2.35036	134.095	17.912	2.45905	136.458	16.3489	34.0527	148.874	49.6129	19.1175	
62	0.516667	114.372	78.4187	26.1088	85.0246	78.3103	1.57894	74.925	69.5507	-28.156	76.9025	48.7183	-41.7598	143.999	71.654	-36.9532	142.64	74.5437	-61.9992	144.491	78.7256	-88.3465	145.732	53.7756	-48.9377	145.866	61.3925	-71.3453	145.927	62.9061	-102.141	122.915	36.3183	-46.5022	96.852	52.1846	-59.2114	80.4625	58.2298	-28.0061	102.606	22.8454	-35.6228	79.3836	42.3057	-29.919	88.4498	51.7256	-0.280789	137.949	24.8776	5.44976	138.166	18.6829	36.0336	146.857	53.6814	20.0533	
63	0.525	110.71	81.4009	27.1078	83.6966	79.7246	1.43665	74.0458	75.0266	-26.03	78.4099	52.2952	-45.366	144.885	80.2027	-34.0004	147.554	90.7787	-60.0497	146.413	87.0784	-85.7281	146.871	62.8718	-43.5354	148.551	70.2936	-66.7011	150.167	74.7476	-100.413	126.691	43.915	-45.357	100.357	53.9787	-59.3226	82.3515	59.9705	-32.3905	107.883	29.135	-36.5464	84.913	44.866	-34.2357	86.1553	52.4349	-1.51685	142.463	31.1219	2.74462	139.395	24.9863	36.8468	146.271	61.991	23.4085	
64	0.533333	107.079	80.0871	34.7373	81.0444	81.8567	0.842695	72.3079	77.4505	-23.1281	81.6235	57.42	-44.8849	145.101	92.4874	-26.9957	146.758	100.338	-56.4481	148.946	98.4742	-79.9052	149.171	75.7675	-38.6386	150.804	79.2844	-65.0211	152.748	89.2647	-91.9437	131.19	52.8774	-44.3105	100.937	60.1413	-59.3362	84.1066	64.6108	-35.0918	113.866	36.7943	-37.3708	86.5262	47.6128	-34.3982	85.6111	51.487	-2.43582	144.004	36.3996	3.57841	141.868	28.4275	36.3266	144.452	64.2549	28.3527	
65	0.541667	102.669	81.19	34.8637	81.3936	78.008	3.93294	74.8984	77.5656	-23.3531	83.7088	61.9904	-43.6924	142.912	97.911	-22.2787	145.309	102.697	-50.8231	150.067	106.296	-70.631	152.417	80.2698	-37.6534	153.175	88.3388	-59.2686	154.558	99.1544	-84.794	135.587	63.2367	-43.1189	110.076	67.8619	-58.129	87.1582	67.3874	-33.2704	119.895	42.8573	-38.2391	90.7621	47.7063	-34.758	89.4936	51.7901	-6.39208	146.793	41.9551	9.31495	141.872	33.9332	39.809	145.237	68.2697	29.684	
66	0.55	98.1003	79.0775	35.6353	79.5602	74.6769	4.27957	77.3577	75.8261	-27.4526	90.7679	62.3709	-44.844	140.737	102.929	-20.685	143.788	113.123	-40.4507	152.134	118.547	-66.2607	151.439	88.1514	-28.4116	155.565	98.1244	-53.5615	158.961	108.12	-82.575	141.329	68.7593	-42.357	113.315	69.8482	-57.6845	91.4746	65.5335	-36.4716	129.624	46.7855	-37.2111	102.135	48.3476	-41.632	92.7971	45.7517	-8.07429	151.753	47.1606	8.80212	144.351	36.088	38.4906	140.014	71.0396	36.1561	
67	0.558333	93.5004	75.6768	37.3411	79.4759	70.9591	2.61315	82.9954	71.264	-26.8514	94.25	63.5536	-46.111	138.182	106.927	-13.8958	141.456	119.099	-35.5978	151.795	123.362	-57.704	150.767	98.8847	-24.3218	156.35	105.367	-46.2256	160.775	115.956	-71.9424	145.914	72.2217	-32.9031	123.247	74.7326	-55.3454	96.8573	64.1361	-37.2879	138.359	49.4545	-34.6145	107.526	52.8017	-41.2302	96.0904	45.6383	-14.0517	151.435	52.1864	17.0556	146.892	36.0866	44.1024	136.576	76.3746	39.6808	
68	0.566667	90.3931	69.6189	37.8467	79.8996	65.2187	4.28303	79.1797	69.5559	-27.8265	98.1343	64.5213	-46.7712	133.13	108.367	-5.97684	139.369	119.099	-27.2326	147.27	131.247	-46.6509	152.035	101.264	-18.4135	155.451	111.207	-38.9781	160.839	124.511	-64.4224	148.399	77.4674	-29.5236	126.393	79.1444	-50.8015	98.3779	64.9045	-33.3547	143.055	56.7656	-30.338	119.447	55.9199	-42.7685	99.8198	48.4348	-14.8835	150.611	57.2818	23.0063	146.772	40.7084	45.1626	134.623	73.2689	42.5086	
69	0.575	92.4341	65.7166	36.2066	80.977	61.7782	4.19103	84.9695	67.8449	-27.6638	100.993	64.299	-43.2416	127.924	115.385	-2.49523	133.026	125.782	-21.1519	142.561	136.598	-38.126	146.706	106.341	-8.85607	151.362	120.374	-30.048	159.697	130.993	-57.2809	147.816	82.9685	-21.9084	128.827	83.87	-45.715	103.855	61.1181	-33.4896	144.345	64.1056	-25.918	123.989	54.751	-42.1153	104.12	45.0813	-18.8213	152.543	60.4272	24.5673	143.523	43.689	52.8667	126.512	73.1288	50.4013	
